#!OML:ASF H:\charlestonDancing\Project 1\Capture day 1\Session 1\femaleDancer.ASF
:FULLY-SPECIFIED
:DEGREES
540
root -16.1869 17.3468 -1.867 370.018 -138.459 -367.691
lowerback 11.4054 -2.30487 -5.47038
upperback 1.63778 -3.86078 -0.209214
thorax -4.32664 -1.87556 3.4267
lowerneck 1.64811 -8.62544 -3.34466
upperneck -4.83256 -11.4254 10.6849
head -0.952681 -5.93618 4.14207
rclavicle -5.81942e-014 -1.72943e-014
rhumerus -40.0469 -1.57816 -73.2744
rradius 43.6977
rwrist 22.9016
rhand -13.1013 -29.6089
rfingers 7.12502
rthumb 12.9955 300.816
lclavicle -5.81942e-014 -1.72943e-014
lhumerus -51.5701 4.81291 76.8301
lradius 34.0658
lwrist 0.133653
lhand -25.4693 17.3476
lfingers 7.12502
lthumb 1.05826 47.3247
rfemur -39.9351 -12.3445 21.9855
rtibia 39.0297
rfoot -8.45285 -13.1702
rtoes -0.15701
lfemur 15.2943 2.76568 -20.352
ltibia 14.4015
lfoot -8.62947 -0.837589
ltoes -40.024
541
root -16.3034 17.3434 -2.19324 368.785 -139.945 -365.95
lowerback 11.1476 -2.15388 -4.16577
upperback 1.61407 -3.4559 0.230262
thorax -4.29568 -1.68912 3.08679
lowerneck 1.46291 -8.17381 -3.39757
upperneck -4.16123 -10.8514 10.1133
head -0.777735 -5.60854 3.92665
rclavicle 3.61788e-014 -7.95139e-015
rhumerus -40.3831 -2.15605 -72.9527
rradius 47.6853
rwrist 20.893
rhand -13.3456 -29.4199
rfingers 7.12502
rthumb 12.76 300.99
lclavicle 3.61788e-014 -7.95139e-015
lhumerus -52.1044 5.4756 76.6281
lradius 34.5427
lwrist 0.499796
lhand -25.5278 16.9551
lfingers 7.12502
lthumb 1.00177 46.9325
rfemur -39.4278 -11.3591 23.7429
rtibia 39.5702
rfoot -9.06752 -11.9894
rtoes 1.06104
lfemur 14.6317 2.51194 -19.0659
ltibia 18.2463
lfoot -7.78716 -0.0744359
ltoes -42.2135
542
root -16.4173 17.311 -2.51156 367.253 -141.582 -363.912
lowerback 11.102 -2.04208 -2.57025
upperback 1.65809 -3.09054 0.744331
thorax -4.30858 -1.53057 2.67414
lowerneck 1.14927 -7.65413 -3.55492
upperneck -3.38409 -10.1941 9.69889
head -0.535872 -5.24085 3.77809
rclavicle 1.799e-014 8.74653e-015
rhumerus -40.4272 -2.33587 -72.7116
rradius 51.9419
rwrist 19.4209
rhand -12.6462 -30.0998
rfingers 7.12502
rthumb 13.4342 300.353
lclavicle 1.799e-014 8.74653e-015
lhumerus -52.7237 6.82859 76.0625
lradius 35.0299
lwrist 0.522051
lhand -25.7054 16.2444
lfingers 7.12502
lthumb 0.83031 46.2225
rfemur -38.7091 -9.98856 25.6107
rtibia 40.471
rfoot -9.56986 -10.4565
rtoes 3.40097
lfemur 13.7266 2.30742 -17.4965
ltibia 22.8618
lfoot -6.05442 0.571498
ltoes -42.3769
543
root -16.5279 17.2677 -2.82053 365.953 -143.418 -362.517
lowerback 11.0524 -1.85559 -1.3649
upperback 1.82897 -2.69959 1.01467
thorax -4.16882 -1.36311 2.21703
lowerneck 1.20641 -7.1343 -3.4028
upperneck -2.83275 -9.5235 9.30794
head -0.445986 -4.8882 3.61278
rclavicle 7.11649e-014 -1.90833e-014
rhumerus -40.1974 -2.45239 -72.6538
rradius 56.5861
rwrist 16.6632
rhand -14.8684 -30.9267
rfingers 7.12502
rthumb 11.2917 299.397
lclavicle 7.11649e-014 -1.90833e-014
lhumerus -53.3722 8.28233 75.2071
lradius 35.6147
lwrist 0.762645
lhand -25.7468 15.521
lfingers 7.12502
lthumb 0.790335 45.4993
rfemur -37.6604 -8.5639 26.9119
rtibia 41.4187
rfoot -10.3075 -10.2288
rtoes 3.03273
lfemur 12.5904 2.28232 -16.4049
ltibia 28.1421
lfoot -3.09741 1.29456
ltoes -40.9247
544
root -16.6324 17.2389 -3.11996 364.949 -145.205 -361.745
lowerback 11.1384 -1.74068 -0.651698
upperback 1.89102 -2.46682 1.17148
thorax -4.18506 -1.26158 1.94884
lowerneck 1.89599 -6.52776 -3.17655
upperneck -2.42181 -8.73173 8.84428
head -0.523024 -4.49118 3.44425
rclavicle -1.8487e-014 4.37326e-015
rhumerus -39.8697 -2.18905 -72.6123
rradius 61.6052
rwrist 14.2321
rhand -15.2312 -31.6954
rfingers 7.12502
rthumb 10.9418 298.61
lclavicle -1.8487e-014 4.37326e-015
lhumerus -54.1843 9.77067 74.3128
lradius 36.0411
lwrist 1.33276
lhand -25.7336 14.9408
lfingers 7.12502
lthumb 0.803076 44.919
rfemur -36.2965 -7.92927 27.9024
rtibia 42.022
rfoot -11.5367 -9.31824
rtoes 2.0939
lfemur 11.1155 2.22693 -15.8054
ltibia 33.6653
lfoot 1.57288 2.34957
ltoes -40.8079
